<svg xmlns="http://www.w3.org/2000/svg" viewBox="0 0 360 520" role="img" aria-labelledby="title desc">
  <title id="title">IICT library book cover placeholder</title>
  <desc id="desc">A clean academic book cover placeholder for catalog records.</desc>
  <rect width="360" height="520" rx="22" fill="#1f2a24"/>
  <rect x="34" y="42" width="292" height="436" rx="18" fill="#f7f1e7"/>
  <rect x="62" y="78" width="236" height="88" rx="14" fill="#3a5a40"/>
  <rect x="62" y="188" width="236" height="14" rx="7" fill="#b68a3a"/>
  <rect x="62" y="224" width="184" height="14" rx="7" fill="#b68a3a"/>
  <rect x="62" y="260" width="210" height="14" rx="7" fill="#b68a3a"/>
  <path d="M86 352c52-26 89-14 126 14v68c-39-27-77-36-126-14z" fill="#e7ece7"/>
  <path d="M212 366c43-28 83-39 126-14v68c-47-21-83-13-126 14z" fill="#ded6c8"/>
  <path d="M212 364v70" stroke="#8f6a1f" stroke-width="6" stroke-linecap="round"/>
  <text x="180" y="128" text-anchor="middle" font-family="Arial, sans-serif" font-size="28" font-weight="700" fill="#fff">IICT</text>
</svg>
