<svg xmlns="http://www.w3.org/2000/svg" viewBox="0 0 1200 640" role="img" aria-labelledby="title desc">
  <title id="title">Students reading in an academic library</title>
  <desc id="desc">A warm illustrated reading room with bookshelves, tables, and study lamps.</desc>
  <rect width="1200" height="640" fill="#efe5d6"/>
  <rect x="0" y="0" width="1200" height="220" fill="#3a5a40"/>
  <rect x="80" y="90" width="1040" height="430" rx="24" fill="#f7f1e7"/>
  <rect x="130" y="130" width="230" height="310" rx="14" fill="#d8c8ad"/>
  <rect x="405" y="130" width="230" height="310" rx="14" fill="#d8c8ad"/>
  <rect x="680" y="130" width="230" height="310" rx="14" fill="#d8c8ad"/>
  <g fill="#3a5a40">
    <rect x="160" y="170" width="50" height="220" rx="6"/>
    <rect x="225" y="170" width="35" height="220" rx="6"/>
    <rect x="275" y="170" width="48" height="220" rx="6"/>
    <rect x="435" y="170" width="48" height="220" rx="6"/>
    <rect x="500" y="170" width="38" height="220" rx="6"/>
    <rect x="555" y="170" width="44" height="220" rx="6"/>
    <rect x="710" y="170" width="42" height="220" rx="6"/>
    <rect x="770" y="170" width="52" height="220" rx="6"/>
    <rect x="840" y="170" width="36" height="220" rx="6"/>
  </g>
  <g fill="#b68a3a">
    <rect x="176" y="185" width="18" height="190" rx="4"/>
    <rect x="444" y="185" width="18" height="190" rx="4"/>
    <rect x="789" y="185" width="18" height="190" rx="4"/>
  </g>
  <rect x="170" y="470" width="860" height="48" rx="24" fill="#8f6a1f"/>
  <rect x="250" y="410" width="700" height="90" rx="18" fill="#b68a3a"/>
  <circle cx="355" cy="370" r="44" fill="#1f2a24"/>
  <circle cx="840" cy="370" r="44" fill="#1f2a24"/>
  <path d="M310 445c26-42 66-42 90 0" fill="none" stroke="#3a5a40" stroke-width="28" stroke-linecap="round"/>
  <path d="M795 445c26-42 66-42 90 0" fill="none" stroke="#3a5a40" stroke-width="28" stroke-linecap="round"/>
  <path d="M470 405h260c22 0 40 18 40 40v18H430v-18c0-22 18-40 40-40z" fill="#f7f1e7"/>
  <path d="M500 425h85v58h-85zM615 425h85v58h-85z" fill="#e7ece7"/>
</svg>
